<?xml version="1.0" ?><svg viewBox="0 0 32 32" xmlns="http://www.w3.org/2000/svg"><title/><g data-name="Layer 16" id="Layer_16"><path d="M24,3H8A5,5,0,0,0,3,8V24a5,5,0,0,0,5,5H24a5,5,0,0,0,5-5V8A5,5,0,0,0,24,3Zm3,21a3,3,0,0,1-3,3H8a3,3,0,0,1-3-3V8A3,3,0,0,1,8,5H24a3,3,0,0,1,3,3Z"/><path d="M22.89,12.57a1,1,0,0,0-.15-.24s0,0,0-.05a.81.81,0,0,0-.24-.17l-6-3a1,1,0,0,0-.9,0l-6,3a1,1,0,0,0,0,1.78l6,3a1,1,0,0,0,.9,0L21,14.62v3.76l-5,2.5-5.55-2.77a1,1,0,1,0-.9,1.78l6,3a1,1,0,0,0,.9,0l6-3A1,1,0,0,0,23,19V13a1,1,0,0,0-.07-.35A.3.3,0,0,0,22.89,12.57ZM16,14.88,12.24,13,16,11.12,19.76,13Z"/></g></svg>