<?xml version="1.0" ?><svg viewBox="0 0 32 32" xmlns="http://www.w3.org/2000/svg"><title/><g data-name="Layer 44" id="Layer_44"><path d="M26.3,8.18C23.43,6.6,19.7,7,16,9.13,12.3,7,8.57,6.6,5.7,8.18A7.22,7.22,0,0,0,2,14.66c0,5.9,5.35,12.28,14,12.28s14-6.38,14-12.28A7.22,7.22,0,0,0,26.3,8.18ZM16,24.94c-7.41,0-12-5.34-12-10.28A5.2,5.2,0,0,1,6.66,9.93a6.17,6.17,0,0,1,3-.71,11.14,11.14,0,0,1,5.84,1.93,1,1,0,0,0,1.08,0c3.19-2,6.48-2.49,8.8-1.22A5.2,5.2,0,0,1,28,14.66C28,19.6,23.41,24.94,16,24.94Z"/><path d="M21.54,15.64a12,12,0,0,1-11.08,0,1,1,0,1,0-.92,1.77,13.92,13.92,0,0,0,12.92,0,1,1,0,1,0-.92-1.77Z"/></g></svg>