<?xml version="1.0" ?><svg viewBox="0 0 32 32" xmlns="http://www.w3.org/2000/svg"><defs><style>.cls-1{fill:#101820;}</style></defs><title/><g data-name="Layer 44" id="Layer_44"><path class="cls-1" d="M17,31H15a5,5,0,0,1-5-5V20a1,1,0,0,1,2,0v6a3,3,0,0,0,3,3h2a3,3,0,0,0,3-3V19a4,4,0,0,0-4-4,1,1,0,0,1,0-2,6,6,0,0,1,6,6v7A5,5,0,0,1,17,31Z"/><path class="cls-1" d="M16,19a6,6,0,0,1-6-6V6a5,5,0,0,1,5-5h2a5,5,0,0,1,5,5v6a1,1,0,0,1-2,0V6a3,3,0,0,0-3-3H15a3,3,0,0,0-3,3v7a4,4,0,0,0,4,4,1,1,0,0,1,0,2Z"/></g></svg>