<?xml version="1.0" ?><svg viewBox="0 0 32 32" xmlns="http://www.w3.org/2000/svg"><title/><g data-name="Layer 30" id="Layer_30"><path d="M13,30H7a1,1,0,0,1-1-1V23a1,1,0,0,1,.14-.51L10.63,15H7a1,1,0,0,1-1-1V8A1,1,0,0,1,7,7h8.43l2.71-4.51A1,1,0,0,1,19,2h6a1,1,0,0,1,1,1V9a1,1,0,0,1-.14.51L21.37,17H25a1,1,0,0,1,1,1v6a1,1,0,0,1-1,1H16.57l-2.71,4.51A1,1,0,0,1,13,30ZM8,28h4.43l2.71-4.51A1,1,0,0,1,16,23h8V19H19.6a1,1,0,0,1-.86-1.51L24,8.72V4H19.57L16.86,8.51A1,1,0,0,1,16,9H8v4h4.4a1,1,0,0,1,.86,1.51L8,23.28Z"/></g></svg>