<?xml version="1.0" ?><svg viewBox="0 0 32 32" xmlns="http://www.w3.org/2000/svg"><title/><g data-name="Layer 29" id="Layer_29"><path d="M30,16A14,14,0,1,0,16,30a16,16,0,0,0,1.7-.11A1.09,1.09,0,0,0,18,30a1,1,0,0,0,.59-.21A14,14,0,0,0,30,16Zm-2.63,3.8a14,14,0,0,0-6.56-2.67,22.26,22.26,0,0,0-1-4.37,14,14,0,0,0,5.47-4.41A11.92,11.92,0,0,1,27.37,19.8ZM23.79,6.89a11.86,11.86,0,0,1-4.77,4,22,22,0,0,0-4.78-6.74A12.79,12.79,0,0,1,16,4,11.89,11.89,0,0,1,23.79,6.89ZM11.93,4.73l0,0a20,20,0,0,1,5.19,6.82A12.13,12.13,0,0,1,14,12,11.9,11.9,0,0,1,6.2,9.1,12,12,0,0,1,11.93,4.73ZM4,16a12,12,0,0,1,1.17-5.14A14,14,0,0,0,14,14a14,14,0,0,0,3.89-.55A19.5,19.5,0,0,1,18.77,17,14,14,0,0,0,7,23.86,11.89,11.89,0,0,1,4,16Zm4.44,9.31A12,12,0,0,1,19,19c0,.33,0,.67,0,1a19.68,19.68,0,0,1-1.64,7.92A12.12,12.12,0,0,1,16,28,11.94,11.94,0,0,1,8.44,25.31ZM19.72,27.4A21.73,21.73,0,0,0,21,20c0-.28,0-.55,0-.83a12,12,0,0,1,5.58,2.52A12.06,12.06,0,0,1,19.72,27.4Z"/></g></svg>