<?xml version="1.0" ?><svg viewBox="0 0 32 32" xmlns="http://www.w3.org/2000/svg"><title/><g data-name="Layer 4" id="Layer_4"><path d="M16,2A13,13,0,0,0,8,25.23V29a1,1,0,0,0,.51.87A1,1,0,0,0,9,30a1,1,0,0,0,.51-.14l3.65-2.19A12.64,12.64,0,0,0,16,28,13,13,0,0,0,16,2Zm0,24a11.13,11.13,0,0,1-2.76-.36,1,1,0,0,0-.76.11L10,27.23v-2.5a1,1,0,0,0-.42-.81A11,11,0,1,1,16,26Z"/><path d="M21.4,13.2l-3.31,2.48-3.38-3.39a1,1,0,0,0-1.31-.09l-4,3a1,1,0,1,0,1.2,1.6l3.31-2.48,3.38,3.39a1,1,0,0,0,1.31.09l4-3a1,1,0,1,0-1.2-1.6Z"/></g></svg>