<?xml version="1.0" ?><svg viewBox="0 0 32 32" xmlns="http://www.w3.org/2000/svg"><title/><g data-name="Layer 38" id="Layer_38"><path d="M10.76,12.35a1,1,0,0,0-1.41-.11L4,16.83V10a1,1,0,0,0-2,0V22a1,1,0,0,0,2,0V19.46l1.59-1.37,3.63,4.54A1,1,0,0,0,10,23a1,1,0,0,0,.62-.22,1,1,0,0,0,.16-1.4L7.11,16.79l3.54-3A1,1,0,0,0,10.76,12.35Z"/><path d="M25.76,12.35a1,1,0,0,0-1.41-.11L19,16.83V10a1,1,0,0,0-2,0V22a1,1,0,0,0,2,0V19.46l1.59-1.37,3.63,4.54A1,1,0,0,0,25,23a1,1,0,0,0,.62-.22,1,1,0,0,0,.16-1.4l-3.67-4.59,3.54-3A1,1,0,0,0,25.76,12.35Z"/><path d="M14,15a1,1,0,0,0-1,1v6a1,1,0,0,0,2,0V16A1,1,0,0,0,14,15Z"/><circle cx="29" cy="18" r="1"/></g></svg>