<?xml version="1.0" ?><svg viewBox="0 0 32 32" xmlns="http://www.w3.org/2000/svg"><title/><g data-name="Layer 8" id="Layer_8"><path d="M16,2C8.28,2,2,7.38,2,14c0,5.48,4.34,10.24,10.44,11.6L12,28.87a1,1,0,0,0,.37.91A1,1,0,0,0,13,30a1,1,0,0,0,.35-.06C14,29.68,30,23.58,30,14,30,7.38,23.72,2,16,2ZM14.22,27.4l.33-2.47a1,1,0,0,0-.83-1.12C8.09,22.91,4,18.78,4,14,4,8.49,9.38,4,16,4S28,8.49,28,14C28,20.61,18.14,25.66,14.22,27.4Z"/><path d="M10,15.25H8.75V12a.75.75,0,0,0-1.5,0v4a.76.76,0,0,0,.75.75h2a.75.75,0,0,0,0-1.5Z"/><path d="M24,12.75a.75.75,0,0,0,0-1.5H22a.76.76,0,0,0-.75.75v4a.76.76,0,0,0,.75.75h2a.75.75,0,0,0,0-1.5H22.75v-.5H24a.75.75,0,0,0,0-1.5H22.75v-.5Z"/><path d="M13,11.25a.76.76,0,0,0-.75.75v4a.75.75,0,0,0,1.5,0V12A.76.76,0,0,0,13,11.25Z"/><path d="M19,11.25a.76.76,0,0,0-.75.75v1.75l-1.65-2.2a.75.75,0,0,0-1.35.45v4a.75.75,0,0,0,1.5,0V14.25l1.65,2.2a.75.75,0,0,0,.6.3.67.67,0,0,0,.24,0,.75.75,0,0,0,.51-.71V12A.76.76,0,0,0,19,11.25Z"/></g></svg>