<?xml version="1.0" ?><svg viewBox="0 0 32 32" xmlns="http://www.w3.org/2000/svg"><title/><g data-name="Layer 33" id="Layer_33"><path d="M26,14a4,4,0,1,0-4-4A4,4,0,0,0,26,14Zm0-6a2,2,0,1,1-2,2A2,2,0,0,1,26,8Z"/><path d="M16,8a4,4,0,1,0,4,4A4,4,0,0,0,16,8Zm0,6a2,2,0,1,1,2-2A2,2,0,0,1,16,14Z"/><path d="M6,10a4,4,0,1,0,4,4A4,4,0,0,0,6,10Zm0,6a2,2,0,1,1,2-2A2,2,0,0,1,6,16Z"/><path d="M6,19a4,4,0,0,0-4,4v2a1,1,0,0,0,1,1H9a1,1,0,0,0,1-1V23A4,4,0,0,0,6,19Zm2,5H4V23a2,2,0,0,1,4,0Z"/><path d="M16,17a4,4,0,0,0-4,4v4a1,1,0,0,0,1,1h6a1,1,0,0,0,1-1V21A4,4,0,0,0,16,17Zm2,7H14V21a2,2,0,0,1,4,0Z"/><path d="M26,15a4,4,0,0,0-4,4v6a1,1,0,0,0,1,1h6a1,1,0,0,0,1-1V19A4,4,0,0,0,26,15Zm2,9H24V19a2,2,0,0,1,4,0Z"/></g></svg>