<?xml version="1.0" ?><svg viewBox="0 0 32 32" xmlns="http://www.w3.org/2000/svg"><title/><g data-name="Layer 43" id="Layer_43"><path d="M16,18a8,8,0,1,0-8-8A8,8,0,0,0,16,18ZM16,4a6,6,0,1,1-6,6A6,6,0,0,1,16,4Z"/><path d="M24.86,18.33A1,1,0,0,0,23.5,18a15.1,15.1,0,0,1-15,0,1,1,0,0,0-1.36.36A1,1,0,0,0,7.5,19.7a16.89,16.89,0,0,0,6.59,2.18L9.2,28.4a1,1,0,0,0,.2,1.4,1,1,0,0,0,.6.2,1,1,0,0,0,.8-.4L16,22.67l5.2,6.93a1,1,0,0,0,.8.4,1,1,0,0,0,.6-.2,1,1,0,0,0,.2-1.4l-4.89-6.52A16.89,16.89,0,0,0,24.5,19.7,1,1,0,0,0,24.86,18.33Z"/></g></svg>