<?xml version="1.0" ?><svg viewBox="0 0 32 32" xmlns="http://www.w3.org/2000/svg"><title/><g data-name="Layer 27" id="Layer_27"><path d="M28.32,25.05a1,1,0,0,0-1.27.63l-.2.6a2.51,2.51,0,0,1-4.75.06l-.25-.68A13.32,13.32,0,0,0,27,15C27,7.83,21.62,2,15,2S3,7.83,3,15,8.38,28,15,28a11.1,11.1,0,0,0,5.11-1.26l.11.29a4.52,4.52,0,0,0,8.53-.12l.2-.59A1,1,0,0,0,28.32,25.05ZM15,26C9.49,26,5,21.07,5,15S9.49,4,15,4,25,8.93,25,15a11.39,11.39,0,0,1-3.87,8.67l-.78-2.14A8.75,8.75,0,0,0,14.24,16,1,1,0,0,0,13.76,18a6.75,6.75,0,0,1,4.71,4.25l1,2.63A9.22,9.22,0,0,1,15,26Z"/></g></svg>