<?xml version="1.0" ?><svg viewBox="0 0 32 32" xmlns="http://www.w3.org/2000/svg"><title/><g data-name="Layer 22" id="Layer_22"><path d="M28.66,18.89A12.52,12.52,0,0,0,29,16,13,13,0,0,0,16,3a12.52,12.52,0,0,0-2.89.34,7,7,0,0,0-9.77,9.77A12.52,12.52,0,0,0,3,16,13,13,0,0,0,16,29a12.52,12.52,0,0,0,2.89-.34,7,7,0,0,0,9.77-9.77ZM23,28a5,5,0,0,1-3.23-1.19,1,1,0,0,0-.65-.23l-.26,0A11,11,0,0,1,5.39,13.14a1,1,0,0,0-.2-.91,5,5,0,0,1,7-7,1,1,0,0,0,.91.2A11,11,0,0,1,26.61,18.86a1,1,0,0,0,.2.91A5,5,0,0,1,23,28Z"/><path d="M14.5,12H18a1,1,0,0,1,1,1,1,1,0,0,0,2,0,3,3,0,0,0-3-3H14.5a3.5,3.5,0,0,0,0,7h3a1.5,1.5,0,0,1,0,3H14a1,1,0,0,1-1-1,1,1,0,0,0-2,0,3,3,0,0,0,3,3h3.5a3.5,3.5,0,0,0,0-7h-3a1.5,1.5,0,0,1,0-3Z"/></g></svg>