<?xml version="1.0" ?><svg viewBox="0 0 32 32" xmlns="http://www.w3.org/2000/svg"><title/><g data-name="Layer 20" id="Layer_20"><path d="M17.5,14A3.5,3.5,0,0,0,21,10.5v-5a3.5,3.5,0,0,0-7,0v5A3.5,3.5,0,0,0,17.5,14ZM16,5.5a1.5,1.5,0,0,1,3,0v5a1.5,1.5,0,0,1-3,0Z"/><path d="M8.5,9H11a1,1,0,0,0,1-1V5.5A3.5,3.5,0,1,0,8.5,9Zm0-5A1.5,1.5,0,0,1,10,5.5V7H8.5a1.5,1.5,0,0,1,0-3Z"/><path d="M24,12h2.5A3.5,3.5,0,1,0,23,8.5V11A1,1,0,0,0,24,12Zm1-3.5A1.5,1.5,0,1,1,26.5,10H25Z"/><path d="M23.5,22H21a1,1,0,0,0-1,1v2.5A3.5,3.5,0,1,0,23.5,22Zm0,5A1.5,1.5,0,0,1,22,25.5V24h1.5a1.5,1.5,0,0,1,0,3Z"/><path d="M8,20H5.5A3.5,3.5,0,1,0,9,23.5V21A1,1,0,0,0,8,20ZM7,23.5A1.5,1.5,0,1,1,5.5,22H7Z"/><path d="M14,14.5A3.5,3.5,0,0,0,10.5,11h-5a3.5,3.5,0,0,0,0,7h5A3.5,3.5,0,0,0,14,14.5ZM10.5,16h-5a1.5,1.5,0,0,1,0-3h5a1.5,1.5,0,0,1,0,3Z"/><path d="M14.5,18A3.5,3.5,0,0,0,11,21.5v5a3.5,3.5,0,0,0,7,0v-5A3.5,3.5,0,0,0,14.5,18ZM16,26.5a1.5,1.5,0,0,1-3,0v-5a1.5,1.5,0,0,1,3,0Z"/><path d="M26.5,14h-5a3.5,3.5,0,0,0,0,7h5a3.5,3.5,0,0,0,0-7Zm0,5h-5a1.5,1.5,0,0,1,0-3h5a1.5,1.5,0,0,1,0,3Z"/></g></svg>