<?xml version="1.0" ?><svg viewBox="0 0 32 32" xmlns="http://www.w3.org/2000/svg"><title/><g data-name="Layer 9" id="Layer_9"><path d="M11.61,14.16a1,1,0,0,0,0,1.41l2.82,2.82a1,1,0,0,0,.7.29,1,1,0,0,0,.71-.29,1,1,0,0,0,0-1.41L13,14.16A1,1,0,0,0,11.61,14.16Z"/><path d="M17.66,16.25a1,1,0,0,0-1.32,1.5l1.56,1.39-.66.65c-.27.27-.92.28-1.71,0a8.88,8.88,0,0,1-3.21-2.13,8.88,8.88,0,0,1-2.13-3.21c-.26-.79-.25-1.44,0-1.71l.65-.66,1.39,1.56a1,1,0,0,0,1.5-1.32l-1.39-1.57a2,2,0,0,0-1.44-.67,2.08,2.08,0,0,0-1.47.59l-.66.65a3.56,3.56,0,0,0-.5,3.76,10.64,10.64,0,0,0,2.62,4,10.64,10.64,0,0,0,4,2.62,5.59,5.59,0,0,0,1.67.29,2.9,2.9,0,0,0,2.09-.79l.66-.66a2,2,0,0,0-.09-2.91Z"/><path d="M16,10a1,1,0,0,0,0,2,2,2,0,0,1,2,2,1,1,0,0,0,2,0A4,4,0,0,0,16,10Z"/><path d="M16,6a1,1,0,0,0,0,2,6,6,0,0,1,6,6,1,1,0,0,0,2,0A8,8,0,0,0,16,6Z"/><path d="M23,2H9A7,7,0,0,0,2,9V19a7,7,0,0,0,7,7v3a1,1,0,0,0,.57.9A.91.91,0,0,0,10,30a1,1,0,0,0,.62-.22L15.35,26H23a7,7,0,0,0,7-7V9A7,7,0,0,0,23,2Zm5,17a5,5,0,0,1-5,5H15a1,1,0,0,0-.62.22L11,26.92V25a1,1,0,0,0-1-1H9a5,5,0,0,1-5-5V9A5,5,0,0,1,9,4H23a5,5,0,0,1,5,5Z"/></g></svg>