<?xml version="1.0" ?><svg viewBox="0 0 32 32" xmlns="http://www.w3.org/2000/svg"><title/><g data-name="Layer 12" id="Layer_12"><path d="M17.32,28a5.42,5.42,0,0,1-5.18-3.87L8.69,12.44A2,2,0,0,0,6.76,11H4a1,1,0,0,1-.7-.29l-1-1a1,1,0,0,1,.37-1.65l7.15-2.6a5,5,0,0,1,6.46,3.12L18,13.68a1,1,0,0,1-1.9.64l-1.7-5.1a3,3,0,0,0-1.54-1.76,3,3,0,0,0-2.35-.12L5.93,9h.83a4,4,0,0,1,3.85,2.87l3.44,11.69A3.43,3.43,0,0,0,17.32,26a3.39,3.39,0,0,0,3-1.88L27.75,9.38a2.32,2.32,0,0,0-.1-2.27,2.35,2.35,0,0,0-2-1.11,5.75,5.75,0,0,0-4.78,2.56,1,1,0,0,1-1.66-1.12A7.74,7.74,0,0,1,25.65,4a4.34,4.34,0,0,1,3.89,6.27L22.15,25A5.37,5.37,0,0,1,17.32,28Z"/></g></svg>