<?xml version="1.0" ?><svg viewBox="0 0 32 32" xmlns="http://www.w3.org/2000/svg"><title/><g data-name="Layer 7" id="Layer_7"><path d="M21.94,11C21.41,6.53,17.16,3,12,3,6.49,3,2,7,2,12a8.7,8.7,0,0,0,4,7.2V22a1,1,0,0,0,.53.88,1,1,0,0,0,1-.05l2.91-1.94A11.51,11.51,0,0,0,12,21a.88.88,0,0,0,.28-.06A8.86,8.86,0,0,0,21,27l.66,0,2.79,1.85A1,1,0,0,0,26,28V25.65A7.84,7.84,0,0,0,30,19C30,14.87,26.46,11.46,21.94,11ZM10.41,18.86a1,1,0,0,0-.73.15L8,20.13V18.65a1,1,0,0,0-.49-.86A6.8,6.8,0,0,1,4,12c0-3.86,3.59-7,8-7,4.05,0,7.39,2.65,7.92,6.06C15.47,11.54,12,14.91,12,19A9.49,9.49,0,0,1,10.41,18.86Zm14.14,5.3a1,1,0,0,0-.55.9v1.07l-1.52-1a1,1,0,0,0-.56-.17h-.1A7.37,7.37,0,0,1,21,25c-3.86,0-7-2.69-7-6s3.14-6,7-6,7,2.69,7,6A5.91,5.91,0,0,1,24.55,24.16Z"/><circle cx="9" cy="10" r="1"/><circle cx="15" cy="10" r="1"/><circle cx="18" cy="18" r="1"/><circle cx="24" cy="18" r="1"/></g></svg>