<?xml version="1.0" ?><svg viewBox="0 0 32 32" xmlns="http://www.w3.org/2000/svg"><title/><g data-name="Layer 19" id="Layer_19"><path d="M13.87,13.5l-4-7A1,1,0,0,0,9,6H3a1,1,0,0,0-.86.5,1,1,0,0,0,0,1L5.85,14,2.13,20.5a1,1,0,0,0,0,1A1,1,0,0,0,3,22H9a1,1,0,0,0,.87-.5l4-7A1,1,0,0,0,13.87,13.5ZM8.42,20H4.72l3.15-5.5a1,1,0,0,0,0-1L4.72,8h3.7l3.43,6Z"/><path d="M29.88,3.52A1,1,0,0,0,29,3H23a1,1,0,0,0-.84.46l-9,14a1,1,0,0,0,0,1.08l6.43,10a1,1,0,0,0,.84.46h6a1,1,0,0,0,.84-1.54L21.19,18,29.84,4.54A1,1,0,0,0,29.88,3.52ZM19.16,17.46a1,1,0,0,0,0,1.08L24.6,27H21l-5.79-9L23.55,5h3.62Z"/></g></svg>