<?xml version="1.0" ?><svg viewBox="0 0 32 32" xmlns="http://www.w3.org/2000/svg"><title/><g data-name="Layer 32" id="Layer_32"><path d="M15,14.1a2,2,0,0,1-1.66-.88L8.62,6.43A1.94,1.94,0,0,1,8.4,4.64,2,2,0,0,1,9.79,3.4L15,2.07a2,2,0,0,1,1.83.4,2,2,0,0,1,.71,1.64L17,12.24A2,2,0,0,1,15.54,14,1.87,1.87,0,0,1,15,14.1ZM15.53,4,10.29,5.34,15,12.09h0Z"/><path d="M20.32,17a2,2,0,0,1-1.58-.76,2,2,0,0,1-.19-2.19l3.3-5.9a2.06,2.06,0,0,1,3.32-.34l3.34,3.82h0a1.94,1.94,0,0,1,.42,1.81,2,2,0,0,1-1.34,1.37L21,16.9A2.3,2.3,0,0,1,20.32,17Zm3.35-7.87L20.29,15,27,12.91Z"/><path d="M14.53,30a2.21,2.21,0,0,1-.75-.14h0L9,28a2,2,0,0,1-1.24-1.45,2,2,0,0,1,.53-1.79l4.84-4.83a2.06,2.06,0,0,1,2.25-.44,2,2,0,0,1,1.23,1.83l0,6.7a2,2,0,0,1-.87,1.62A2,2,0,0,1,14.53,30Zm0-2a.09.09,0,0,0,.07,0V21.32l-4.9,4.86Z"/><path d="M5,20.53A2,2,0,0,1,3.59,20,2,2,0,0,1,3,18.2l.9-4.9h0a2,2,0,0,1,1.15-1.45A2.06,2.06,0,0,1,7,12l5.95,3.53a2,2,0,0,1-.65,3.64L5.44,20.49A2,2,0,0,1,5,20.53Zm.87-6.87L5,18.56l6.89-1.4Z"/><path d="M23.69,27.65h-.15a2,2,0,0,1-1.6-1l-3.52-5.79a1.93,1.93,0,0,1,.12-2.19A2,2,0,0,1,20.72,18l6.72,1.86a2,2,0,0,1,1.38,1.33A1.93,1.93,0,0,1,28.47,23h0l-3.2,3.92A2,2,0,0,1,23.69,27.65Zm-3.5-7.76,3.46,5.75,3.27-3.92.77.63-.77-.63.77.63-.77-.63Z"/></g></svg>